<mxfile host="app.diagrams.net" agent="Mozilla/5.0 (Windows NT 10.0; Win64; x64) AppleWebKit/537.36 (KHTML, like Gecko) Chrome/136.0.0.0 Safari/537.36" version="27.0.9">
  <diagram name="Page-1" id="YMZlaHqq8SJxxKQuTkZ4">
    <mxGraphModel dx="1665" dy="795" grid="1" gridSize="10" guides="1" tooltips="1" connect="1" arrows="1" fold="1" page="1" pageScale="1" pageWidth="827" pageHeight="1169" math="0" shadow="0">
      <root>
        <mxCell id="0" />
        <mxCell id="1" parent="0" />
        <mxCell id="4NpV2FDwndaGPeA2fyIo-89" value="" style="rounded=0;whiteSpace=wrap;html=1;" parent="1" vertex="1">
          <mxGeometry x="160" y="30" width="1350" height="850" as="geometry" />
        </mxCell>
        <mxCell id="4NpV2FDwndaGPeA2fyIo-90" value="Description" style="shape=table;startSize=51;container=1;collapsible=0;childLayout=tableLayout;strokeColor=default;fontSize=16;" parent="1" vertex="1">
          <mxGeometry x="1260" y="27.5" width="239" height="470" as="geometry" />
        </mxCell>
        <mxCell id="4NpV2FDwndaGPeA2fyIo-91" value="" style="shape=tableRow;horizontal=0;startSize=0;swimlaneHead=0;swimlaneBody=0;strokeColor=inherit;top=0;left=0;bottom=0;right=0;collapsible=0;dropTarget=0;fillColor=none;points=[[0,0.5],[1,0.5]];portConstraint=eastwest;fontSize=16;" parent="4NpV2FDwndaGPeA2fyIo-90" vertex="1">
          <mxGeometry y="51" width="239" height="59" as="geometry" />
        </mxCell>
        <mxCell id="4NpV2FDwndaGPeA2fyIo-92" value="1" style="shape=partialRectangle;html=1;whiteSpace=wrap;connectable=0;strokeColor=inherit;overflow=hidden;fillColor=none;top=0;left=0;bottom=0;right=0;pointerEvents=1;fontSize=16;" parent="4NpV2FDwndaGPeA2fyIo-91" vertex="1">
          <mxGeometry width="30" height="59" as="geometry">
            <mxRectangle width="30" height="59" as="alternateBounds" />
          </mxGeometry>
        </mxCell>
        <mxCell id="4NpV2FDwndaGPeA2fyIo-93" value="&amp;nbsp;상단 로고 영역" style="shape=partialRectangle;html=1;whiteSpace=wrap;connectable=0;strokeColor=inherit;overflow=hidden;fillColor=none;top=0;left=0;bottom=0;right=0;pointerEvents=1;fontSize=16;rowspan=1;colspan=2;align=left;" parent="4NpV2FDwndaGPeA2fyIo-91" vertex="1">
          <mxGeometry x="30" width="209" height="59" as="geometry">
            <mxRectangle width="123" height="59" as="alternateBounds" />
          </mxGeometry>
        </mxCell>
        <mxCell id="4NpV2FDwndaGPeA2fyIo-94" value="" style="shape=partialRectangle;html=1;whiteSpace=wrap;connectable=0;strokeColor=inherit;overflow=hidden;fillColor=none;top=0;left=0;bottom=0;right=0;pointerEvents=1;fontSize=16;" parent="4NpV2FDwndaGPeA2fyIo-91" vertex="1" visible="0">
          <mxGeometry x="153" width="86" height="59" as="geometry">
            <mxRectangle width="86" height="59" as="alternateBounds" />
          </mxGeometry>
        </mxCell>
        <mxCell id="4NpV2FDwndaGPeA2fyIo-95" value="" style="shape=tableRow;horizontal=0;startSize=0;swimlaneHead=0;swimlaneBody=0;strokeColor=inherit;top=0;left=0;bottom=0;right=0;collapsible=0;dropTarget=0;fillColor=none;points=[[0,0.5],[1,0.5]];portConstraint=eastwest;fontSize=16;" parent="4NpV2FDwndaGPeA2fyIo-90" vertex="1">
          <mxGeometry y="110" width="239" height="60" as="geometry" />
        </mxCell>
        <mxCell id="4NpV2FDwndaGPeA2fyIo-96" value="2" style="shape=partialRectangle;html=1;whiteSpace=wrap;connectable=0;strokeColor=inherit;overflow=hidden;fillColor=none;top=0;left=0;bottom=0;right=0;pointerEvents=1;fontSize=16;" parent="4NpV2FDwndaGPeA2fyIo-95" vertex="1">
          <mxGeometry width="30" height="60" as="geometry">
            <mxRectangle width="30" height="60" as="alternateBounds" />
          </mxGeometry>
        </mxCell>
        <mxCell id="4NpV2FDwndaGPeA2fyIo-97" value="&amp;nbsp;nav바&lt;span style=&quot;background-color: transparent; color: light-dark(rgb(0, 0, 0), rgb(255, 255, 255));&quot;&gt;&amp;nbsp;&lt;/span&gt;&lt;div&gt;&lt;span style=&quot;background-color: transparent; color: light-dark(rgb(0, 0, 0), rgb(255, 255, 255));&quot;&gt;&amp;nbsp;홈 버튼이 있어 누르면 홈으로 이동&lt;/span&gt;&lt;/div&gt;" style="shape=partialRectangle;html=1;whiteSpace=wrap;connectable=0;strokeColor=inherit;overflow=hidden;fillColor=none;top=0;left=0;bottom=0;right=0;pointerEvents=1;fontSize=16;rowspan=1;colspan=2;align=left;" parent="4NpV2FDwndaGPeA2fyIo-95" vertex="1">
          <mxGeometry x="30" width="209" height="60" as="geometry">
            <mxRectangle width="123" height="60" as="alternateBounds" />
          </mxGeometry>
        </mxCell>
        <mxCell id="4NpV2FDwndaGPeA2fyIo-98" value="" style="shape=partialRectangle;html=1;whiteSpace=wrap;connectable=0;strokeColor=inherit;overflow=hidden;fillColor=none;top=0;left=0;bottom=0;right=0;pointerEvents=1;fontSize=16;" parent="4NpV2FDwndaGPeA2fyIo-95" vertex="1" visible="0">
          <mxGeometry x="153" width="86" height="60" as="geometry">
            <mxRectangle width="86" height="60" as="alternateBounds" />
          </mxGeometry>
        </mxCell>
        <mxCell id="4NpV2FDwndaGPeA2fyIo-99" value="" style="shape=tableRow;horizontal=0;startSize=0;swimlaneHead=0;swimlaneBody=0;strokeColor=inherit;top=0;left=0;bottom=0;right=0;collapsible=0;dropTarget=0;fillColor=none;points=[[0,0.5],[1,0.5]];portConstraint=eastwest;fontSize=16;" parent="4NpV2FDwndaGPeA2fyIo-90" vertex="1">
          <mxGeometry y="170" width="239" height="60" as="geometry" />
        </mxCell>
        <mxCell id="4NpV2FDwndaGPeA2fyIo-100" value="3" style="shape=partialRectangle;html=1;whiteSpace=wrap;connectable=0;strokeColor=inherit;overflow=hidden;fillColor=none;top=0;left=0;bottom=0;right=0;pointerEvents=1;fontSize=16;" parent="4NpV2FDwndaGPeA2fyIo-99" vertex="1">
          <mxGeometry width="30" height="60" as="geometry">
            <mxRectangle width="30" height="60" as="alternateBounds" />
          </mxGeometry>
        </mxCell>
        <mxCell id="4NpV2FDwndaGPeA2fyIo-101" value="&amp;nbsp;클릭 시 GitHub&amp;nbsp;&lt;span style=&quot;background-color: transparent; color: light-dark(rgb(0, 0, 0), rgb(255, 255, 255));&quot;&gt;페이지로&lt;/span&gt;&lt;div&gt;&lt;span style=&quot;background-color: transparent; color: light-dark(rgb(0, 0, 0), rgb(255, 255, 255));&quot;&gt;&amp;nbsp;새 창 열림&lt;/span&gt;&lt;/div&gt;" style="shape=partialRectangle;html=1;whiteSpace=wrap;connectable=0;strokeColor=inherit;overflow=hidden;fillColor=none;top=0;left=0;bottom=0;right=0;pointerEvents=1;fontSize=16;rowspan=1;colspan=2;align=left;" parent="4NpV2FDwndaGPeA2fyIo-99" vertex="1">
          <mxGeometry x="30" width="209" height="60" as="geometry">
            <mxRectangle width="123" height="60" as="alternateBounds" />
          </mxGeometry>
        </mxCell>
        <mxCell id="4NpV2FDwndaGPeA2fyIo-102" value="" style="shape=partialRectangle;html=1;whiteSpace=wrap;connectable=0;strokeColor=inherit;overflow=hidden;fillColor=none;top=0;left=0;bottom=0;right=0;pointerEvents=1;fontSize=16;" parent="4NpV2FDwndaGPeA2fyIo-99" vertex="1" visible="0">
          <mxGeometry x="153" width="86" height="60" as="geometry">
            <mxRectangle width="86" height="60" as="alternateBounds" />
          </mxGeometry>
        </mxCell>
        <mxCell id="4NpV2FDwndaGPeA2fyIo-103" value="" style="shape=tableRow;horizontal=0;startSize=0;swimlaneHead=0;swimlaneBody=0;strokeColor=inherit;top=0;left=0;bottom=0;right=0;collapsible=0;dropTarget=0;fillColor=none;points=[[0,0.5],[1,0.5]];portConstraint=eastwest;fontSize=16;" parent="4NpV2FDwndaGPeA2fyIo-90" vertex="1">
          <mxGeometry y="230" width="239" height="60" as="geometry" />
        </mxCell>
        <mxCell id="4NpV2FDwndaGPeA2fyIo-104" value="4" style="shape=partialRectangle;html=1;whiteSpace=wrap;connectable=0;strokeColor=inherit;overflow=hidden;fillColor=none;top=0;left=0;bottom=0;right=0;pointerEvents=1;fontSize=16;" parent="4NpV2FDwndaGPeA2fyIo-103" vertex="1">
          <mxGeometry width="30" height="60" as="geometry">
            <mxRectangle width="30" height="60" as="alternateBounds" />
          </mxGeometry>
        </mxCell>
        <mxCell id="4NpV2FDwndaGPeA2fyIo-105" value="&amp;nbsp;글 내용" style="shape=partialRectangle;html=1;whiteSpace=wrap;connectable=0;strokeColor=inherit;overflow=hidden;fillColor=none;top=0;left=0;bottom=0;right=0;pointerEvents=1;fontSize=16;rowspan=1;colspan=2;align=left;" parent="4NpV2FDwndaGPeA2fyIo-103" vertex="1">
          <mxGeometry x="30" width="209" height="60" as="geometry">
            <mxRectangle width="123" height="60" as="alternateBounds" />
          </mxGeometry>
        </mxCell>
        <mxCell id="4NpV2FDwndaGPeA2fyIo-106" value="" style="shape=partialRectangle;html=1;whiteSpace=wrap;connectable=0;strokeColor=inherit;overflow=hidden;fillColor=none;top=0;left=0;bottom=0;right=0;pointerEvents=1;fontSize=16;" parent="4NpV2FDwndaGPeA2fyIo-103" vertex="1" visible="0">
          <mxGeometry x="153" width="86" height="60" as="geometry">
            <mxRectangle width="86" height="60" as="alternateBounds" />
          </mxGeometry>
        </mxCell>
        <mxCell id="4NpV2FDwndaGPeA2fyIo-107" value="" style="shape=tableRow;horizontal=0;startSize=0;swimlaneHead=0;swimlaneBody=0;strokeColor=inherit;top=0;left=0;bottom=0;right=0;collapsible=0;dropTarget=0;fillColor=none;points=[[0,0.5],[1,0.5]];portConstraint=eastwest;fontSize=16;" parent="4NpV2FDwndaGPeA2fyIo-90" vertex="1">
          <mxGeometry y="290" width="239" height="60" as="geometry" />
        </mxCell>
        <mxCell id="4NpV2FDwndaGPeA2fyIo-108" value="5" style="shape=partialRectangle;html=1;whiteSpace=wrap;connectable=0;strokeColor=inherit;overflow=hidden;fillColor=none;top=0;left=0;bottom=0;right=0;pointerEvents=1;fontSize=16;" parent="4NpV2FDwndaGPeA2fyIo-107" vertex="1">
          <mxGeometry width="30" height="60" as="geometry">
            <mxRectangle width="30" height="60" as="alternateBounds" />
          </mxGeometry>
        </mxCell>
        <mxCell id="4NpV2FDwndaGPeA2fyIo-109" value="댓글 입력 기능" style="shape=partialRectangle;html=1;whiteSpace=wrap;connectable=0;strokeColor=inherit;overflow=hidden;fillColor=none;top=0;left=0;bottom=0;right=0;pointerEvents=1;fontSize=16;rowspan=1;colspan=2;align=left;" parent="4NpV2FDwndaGPeA2fyIo-107" vertex="1">
          <mxGeometry x="30" width="209" height="60" as="geometry">
            <mxRectangle width="123" height="60" as="alternateBounds" />
          </mxGeometry>
        </mxCell>
        <mxCell id="4NpV2FDwndaGPeA2fyIo-110" value="" style="shape=partialRectangle;html=1;whiteSpace=wrap;connectable=0;strokeColor=inherit;overflow=hidden;fillColor=none;top=0;left=0;bottom=0;right=0;pointerEvents=1;fontSize=16;" parent="4NpV2FDwndaGPeA2fyIo-107" vertex="1" visible="0">
          <mxGeometry x="153" width="86" height="60" as="geometry">
            <mxRectangle width="86" height="60" as="alternateBounds" />
          </mxGeometry>
        </mxCell>
        <mxCell id="4NpV2FDwndaGPeA2fyIo-111" style="shape=tableRow;horizontal=0;startSize=0;swimlaneHead=0;swimlaneBody=0;strokeColor=inherit;top=0;left=0;bottom=0;right=0;collapsible=0;dropTarget=0;fillColor=none;points=[[0,0.5],[1,0.5]];portConstraint=eastwest;fontSize=16;" parent="4NpV2FDwndaGPeA2fyIo-90" vertex="1">
          <mxGeometry y="350" width="239" height="60" as="geometry" />
        </mxCell>
        <mxCell id="4NpV2FDwndaGPeA2fyIo-112" value="6" style="shape=partialRectangle;html=1;whiteSpace=wrap;connectable=0;strokeColor=inherit;overflow=hidden;fillColor=none;top=0;left=0;bottom=0;right=0;pointerEvents=1;fontSize=16;" parent="4NpV2FDwndaGPeA2fyIo-111" vertex="1">
          <mxGeometry width="30" height="60" as="geometry">
            <mxRectangle width="30" height="60" as="alternateBounds" />
          </mxGeometry>
        </mxCell>
        <mxCell id="4NpV2FDwndaGPeA2fyIo-113" value="어떤 글들이 있는지 쉽게 확인가능&lt;div&gt;&amp;nbsp;누르면 글 목록으로 이동&lt;/div&gt;" style="shape=partialRectangle;html=1;whiteSpace=wrap;connectable=0;strokeColor=inherit;overflow=hidden;fillColor=none;top=0;left=0;bottom=0;right=0;pointerEvents=1;fontSize=16;align=left;rowspan=1;colspan=2;" parent="4NpV2FDwndaGPeA2fyIo-111" vertex="1">
          <mxGeometry x="30" width="209" height="60" as="geometry">
            <mxRectangle width="123" height="60" as="alternateBounds" />
          </mxGeometry>
        </mxCell>
        <mxCell id="4NpV2FDwndaGPeA2fyIo-114" style="shape=partialRectangle;html=1;whiteSpace=wrap;connectable=0;strokeColor=inherit;overflow=hidden;fillColor=none;top=0;left=0;bottom=0;right=0;pointerEvents=1;fontSize=16;" parent="4NpV2FDwndaGPeA2fyIo-111" vertex="1" visible="0">
          <mxGeometry x="153" width="86" height="60" as="geometry">
            <mxRectangle width="86" height="60" as="alternateBounds" />
          </mxGeometry>
        </mxCell>
        <mxCell id="4NpV2FDwndaGPeA2fyIo-115" style="shape=tableRow;horizontal=0;startSize=0;swimlaneHead=0;swimlaneBody=0;strokeColor=inherit;top=0;left=0;bottom=0;right=0;collapsible=0;dropTarget=0;fillColor=none;points=[[0,0.5],[1,0.5]];portConstraint=eastwest;fontSize=16;" parent="4NpV2FDwndaGPeA2fyIo-90" vertex="1">
          <mxGeometry y="410" width="239" height="60" as="geometry" />
        </mxCell>
        <mxCell id="4NpV2FDwndaGPeA2fyIo-116" value="7" style="shape=partialRectangle;html=1;whiteSpace=wrap;connectable=0;strokeColor=inherit;overflow=hidden;fillColor=none;top=0;left=0;bottom=0;right=0;pointerEvents=1;fontSize=16;" parent="4NpV2FDwndaGPeA2fyIo-115" vertex="1">
          <mxGeometry width="30" height="60" as="geometry">
            <mxRectangle width="30" height="60" as="alternateBounds" />
          </mxGeometry>
        </mxCell>
        <mxCell id="4NpV2FDwndaGPeA2fyIo-117" style="shape=partialRectangle;html=1;whiteSpace=wrap;connectable=0;strokeColor=inherit;overflow=hidden;fillColor=none;top=0;left=0;bottom=0;right=0;pointerEvents=1;fontSize=16;align=left;rowspan=1;colspan=2;" parent="4NpV2FDwndaGPeA2fyIo-115" vertex="1">
          <mxGeometry x="30" width="209" height="60" as="geometry">
            <mxRectangle width="123" height="60" as="alternateBounds" />
          </mxGeometry>
        </mxCell>
        <mxCell id="4NpV2FDwndaGPeA2fyIo-118" style="shape=partialRectangle;html=1;whiteSpace=wrap;connectable=0;strokeColor=inherit;overflow=hidden;fillColor=none;top=0;left=0;bottom=0;right=0;pointerEvents=1;fontSize=16;" parent="4NpV2FDwndaGPeA2fyIo-115" vertex="1" visible="0">
          <mxGeometry x="153" width="86" height="60" as="geometry">
            <mxRectangle width="86" height="60" as="alternateBounds" />
          </mxGeometry>
        </mxCell>
        <mxCell id="4NpV2FDwndaGPeA2fyIo-119" value="" style="swimlane;startSize=0;fontStyle=0" parent="1" vertex="1">
          <mxGeometry x="180" y="50" width="1080" height="810" as="geometry">
            <mxRectangle x="20" y="20" width="50" height="40" as="alternateBounds" />
          </mxGeometry>
        </mxCell>
        <mxCell id="4NpV2FDwndaGPeA2fyIo-120" value="" style="rounded=0;whiteSpace=wrap;html=1;" parent="4NpV2FDwndaGPeA2fyIo-119" vertex="1">
          <mxGeometry x="239" y="200" width="580" height="190" as="geometry" />
        </mxCell>
        <mxCell id="4NpV2FDwndaGPeA2fyIo-121" value="" style="rounded=0;whiteSpace=wrap;html=1;fontSize=14;fontFamily=Verdana;" parent="4NpV2FDwndaGPeA2fyIo-119" vertex="1">
          <mxGeometry x="10" y="200" width="195" height="480" as="geometry" />
        </mxCell>
        <mxCell id="4NpV2FDwndaGPeA2fyIo-122" value="&lt;font&gt;LOGO&lt;/font&gt;" style="rounded=0;whiteSpace=wrap;html=1;fontFamily=Verdana;fontSize=28;" parent="4NpV2FDwndaGPeA2fyIo-119" vertex="1">
          <mxGeometry x="435" y="20" width="195" height="55" as="geometry" />
        </mxCell>
        <mxCell id="4NpV2FDwndaGPeA2fyIo-123" value="1" style="rounded=0;whiteSpace=wrap;html=1;fillColor=#FF0000;strokeColor=#FF0000;fontColor=#FFFFFF;" parent="4NpV2FDwndaGPeA2fyIo-119" vertex="1">
          <mxGeometry x="410" y="20" width="25" height="25" as="geometry" />
        </mxCell>
        <mxCell id="4NpV2FDwndaGPeA2fyIo-124" value="&lt;font style=&quot;font-size: 14px;&quot;&gt;title bar&lt;/font&gt;" style="rounded=0;whiteSpace=wrap;html=1;fontFamily=Verdana;" parent="4NpV2FDwndaGPeA2fyIo-119" vertex="1">
          <mxGeometry y="90" width="1080" height="50" as="geometry" />
        </mxCell>
        <mxCell id="4NpV2FDwndaGPeA2fyIo-125" value="2" style="rounded=0;whiteSpace=wrap;html=1;fillColor=#FF0000;strokeColor=#FF0000;fontColor=#FFFFFF;" parent="4NpV2FDwndaGPeA2fyIo-119" vertex="1">
          <mxGeometry x="479" y="102.5" width="25" height="25" as="geometry" />
        </mxCell>
        <mxCell id="4NpV2FDwndaGPeA2fyIo-128" value="자기소개" style="text;html=1;points=[];align=left;verticalAlign=top;spacingTop=-4;fontSize=14;fontFamily=Verdana" parent="4NpV2FDwndaGPeA2fyIo-119" vertex="1">
          <mxGeometry x="77.5" y="220" width="60" height="20" as="geometry" />
        </mxCell>
        <mxCell id="4NpV2FDwndaGPeA2fyIo-129" value="이름 : 최완용" style="text;html=1;points=[];align=left;verticalAlign=top;spacingTop=-4;fontSize=14;fontFamily=Verdana" parent="4NpV2FDwndaGPeA2fyIo-119" vertex="1">
          <mxGeometry x="22.5" y="280" width="170" height="20" as="geometry" />
        </mxCell>
        <mxCell id="4NpV2FDwndaGPeA2fyIo-130" value="-" style="text;html=1;points=[];align=left;verticalAlign=top;spacingTop=-4;fontSize=14;fontFamily=Verdana" parent="4NpV2FDwndaGPeA2fyIo-119" vertex="1">
          <mxGeometry x="22.5" y="310" width="170" height="20" as="geometry" />
        </mxCell>
        <mxCell id="4NpV2FDwndaGPeA2fyIo-131" value="-" style="text;html=1;points=[];align=left;verticalAlign=top;spacingTop=-4;fontSize=14;fontFamily=Verdana" parent="4NpV2FDwndaGPeA2fyIo-119" vertex="1">
          <mxGeometry x="22.5" y="340" width="170" height="20" as="geometry" />
        </mxCell>
        <mxCell id="4NpV2FDwndaGPeA2fyIo-132" value="-" style="text;html=1;points=[];align=left;verticalAlign=top;spacingTop=-4;fontSize=14;fontFamily=Verdana" parent="4NpV2FDwndaGPeA2fyIo-119" vertex="1">
          <mxGeometry x="22.5" y="373" width="170" height="20" as="geometry" />
        </mxCell>
        <mxCell id="4NpV2FDwndaGPeA2fyIo-133" value="-" style="text;html=1;points=[];align=left;verticalAlign=top;spacingTop=-4;fontSize=14;fontFamily=Verdana" parent="4NpV2FDwndaGPeA2fyIo-119" vertex="1">
          <mxGeometry x="22.5" y="405" width="170" height="20" as="geometry" />
        </mxCell>
        <mxCell id="4NpV2FDwndaGPeA2fyIo-134" value="글 목록" style="text;html=1;points=[];align=left;verticalAlign=top;spacingTop=-4;fontSize=14;fontFamily=Verdana" parent="4NpV2FDwndaGPeA2fyIo-119" vertex="1">
          <mxGeometry x="260" y="220" width="60" height="20" as="geometry" />
        </mxCell>
        <mxCell id="4NpV2FDwndaGPeA2fyIo-135" value="글 1" style="text;html=1;points=[];align=left;verticalAlign=top;spacingTop=-4;fontSize=14;fontFamily=Verdana" parent="4NpV2FDwndaGPeA2fyIo-119" vertex="1">
          <mxGeometry x="265" y="260" width="60" height="20" as="geometry" />
        </mxCell>
        <mxCell id="4NpV2FDwndaGPeA2fyIo-137" value="4" style="rounded=0;whiteSpace=wrap;html=1;fillColor=#FF0000;strokeColor=#FF0000;fontColor=#FFFFFF;" parent="4NpV2FDwndaGPeA2fyIo-119" vertex="1">
          <mxGeometry x="240" y="200" width="25" height="25" as="geometry" />
        </mxCell>
        <mxCell id="4NpV2FDwndaGPeA2fyIo-155" style="edgeStyle=none;curved=1;rounded=0;orthogonalLoop=1;jettySize=auto;html=1;exitX=1;exitY=0.5;exitDx=0;exitDy=0;entryX=0.75;entryY=0;entryDx=0;entryDy=0;fontSize=12;startSize=8;endSize=8;" parent="4NpV2FDwndaGPeA2fyIo-119" source="4NpV2FDwndaGPeA2fyIo-137" target="4NpV2FDwndaGPeA2fyIo-137" edge="1">
          <mxGeometry relative="1" as="geometry" />
        </mxCell>
        <mxCell id="4NpV2FDwndaGPeA2fyIo-156" value="&lt;div&gt;&lt;br/&gt;&lt;/div&gt;" style="rounded=0;whiteSpace=wrap;html=1;movable=1;resizable=1;rotatable=1;deletable=1;editable=1;locked=0;connectable=1;" parent="4NpV2FDwndaGPeA2fyIo-119" vertex="1">
          <mxGeometry x="240" y="565" width="580" height="115" as="geometry" />
        </mxCell>
        <mxCell id="4NpV2FDwndaGPeA2fyIo-158" value="링크" style="text;html=1;points=[];align=left;verticalAlign=top;spacingTop=-4;fontSize=14;fontFamily=Verdana" parent="4NpV2FDwndaGPeA2fyIo-119" vertex="1">
          <mxGeometry x="490" y="610" width="60" height="20" as="geometry" />
        </mxCell>
        <mxCell id="4NpV2FDwndaGPeA2fyIo-164" value="4" style="rounded=0;whiteSpace=wrap;html=1;fillColor=#FF0000;strokeColor=#FF0000;fontColor=#FFFFFF;" parent="4NpV2FDwndaGPeA2fyIo-119" vertex="1">
          <mxGeometry x="240" y="565" width="25" height="25" as="geometry" />
        </mxCell>
        <mxCell id="4NpV2FDwndaGPeA2fyIo-142" value="" style="rounded=0;whiteSpace=wrap;html=1;fontSize=14;fontFamily=Verdana;" parent="1" vertex="1">
          <mxGeometry x="1020" y="240" width="195" height="230" as="geometry" />
        </mxCell>
        <mxCell id="4NpV2FDwndaGPeA2fyIo-143" value="최신글" style="text;html=1;points=[];align=left;verticalAlign=top;spacingTop=-4;fontSize=14;fontFamily=Verdana" parent="1" vertex="1">
          <mxGeometry x="1097.5" y="260" width="60" height="20" as="geometry" />
        </mxCell>
        <mxCell id="4NpV2FDwndaGPeA2fyIo-144" style="edgeStyle=none;curved=1;rounded=0;orthogonalLoop=1;jettySize=auto;html=1;exitX=0.5;exitY=1;exitDx=0;exitDy=0;fontSize=12;startSize=8;endSize=8;" parent="1" source="4NpV2FDwndaGPeA2fyIo-142" target="4NpV2FDwndaGPeA2fyIo-142" edge="1">
          <mxGeometry relative="1" as="geometry" />
        </mxCell>
        <mxCell id="4NpV2FDwndaGPeA2fyIo-145" style="edgeStyle=none;curved=1;rounded=0;orthogonalLoop=1;jettySize=auto;html=1;fontSize=12;startSize=8;endSize=8;" parent="1" source="4NpV2FDwndaGPeA2fyIo-142" target="4NpV2FDwndaGPeA2fyIo-142" edge="1">
          <mxGeometry relative="1" as="geometry" />
        </mxCell>
        <mxCell id="4NpV2FDwndaGPeA2fyIo-147" value="글 1" style="text;html=1;points=[];align=left;verticalAlign=top;spacingTop=-4;fontSize=14;fontFamily=Verdana" parent="1" vertex="1">
          <mxGeometry x="1097.5" y="310" width="60" height="20" as="geometry" />
        </mxCell>
        <mxCell id="4NpV2FDwndaGPeA2fyIo-148" value="글 2" style="text;html=1;points=[];align=left;verticalAlign=top;spacingTop=-4;fontSize=14;fontFamily=Verdana" parent="1" vertex="1">
          <mxGeometry x="1097.5" y="340" width="60" height="20" as="geometry" />
        </mxCell>
        <mxCell id="4NpV2FDwndaGPeA2fyIo-149" value="&lt;span style=&quot;font-size: 14px; text-align: left; text-wrap-mode: nowrap;&quot;&gt;GitHub&lt;/span&gt;" style="rounded=0;whiteSpace=wrap;html=1;fontFamily=Verdana;" parent="1" vertex="1">
          <mxGeometry x="180" y="810" width="1080" height="50" as="geometry" />
        </mxCell>
        <mxCell id="4NpV2FDwndaGPeA2fyIo-153" value="3" style="rounded=0;whiteSpace=wrap;html=1;fillColor=#FF0000;strokeColor=#FF0000;fontColor=#FFFFFF;" parent="1" vertex="1">
          <mxGeometry x="640" y="822.5" width="25" height="25" as="geometry" />
        </mxCell>
        <mxCell id="4NpV2FDwndaGPeA2fyIo-154" value="6" style="rounded=0;whiteSpace=wrap;html=1;fillColor=#FF0000;strokeColor=#FF0000;fontColor=#FFFFFF;" parent="1" vertex="1">
          <mxGeometry x="1030" y="250" width="25" height="25" as="geometry" />
        </mxCell>
        <mxCell id="4NpV2FDwndaGPeA2fyIo-159" value="" style="rounded=0;whiteSpace=wrap;html=1;movable=1;resizable=1;rotatable=1;deletable=1;editable=1;locked=0;connectable=1;" parent="1" vertex="1">
          <mxGeometry x="420" y="470" width="580" height="115" as="geometry" />
        </mxCell>
        <mxCell id="4NpV2FDwndaGPeA2fyIo-160" value="사진" style="text;html=1;points=[];align=left;verticalAlign=top;spacingTop=-4;fontSize=14;fontFamily=Verdana" parent="1" vertex="1">
          <mxGeometry x="650" y="517.5" width="60" height="20" as="geometry" />
        </mxCell>
        <mxCell id="4NpV2FDwndaGPeA2fyIo-161" value="&lt;span style=&quot;font-size: 14px; text-align: left; text-wrap-mode: nowrap;&quot;&gt;댓글&lt;/span&gt;" style="rounded=0;whiteSpace=wrap;html=1;fontFamily=Verdana;" parent="1" vertex="1">
          <mxGeometry x="180" y="760" width="1080" height="50" as="geometry" />
        </mxCell>
        <mxCell id="4NpV2FDwndaGPeA2fyIo-162" value="5" style="rounded=0;whiteSpace=wrap;html=1;fillColor=#FF0000;strokeColor=#FF0000;fontColor=#FFFFFF;" parent="1" vertex="1">
          <mxGeometry x="665" y="772.5" width="25" height="25" as="geometry" />
        </mxCell>
        <mxCell id="4NpV2FDwndaGPeA2fyIo-163" value="4" style="rounded=0;whiteSpace=wrap;html=1;fillColor=#FF0000;strokeColor=#FF0000;fontColor=#FFFFFF;" parent="1" vertex="1">
          <mxGeometry x="420" y="470" width="25" height="25" as="geometry" />
        </mxCell>
      </root>
    </mxGraphModel>
  </diagram>
</mxfile>
